<?xml version="1.0" standalone="no"?>
<!DOCTYPE svg PUBLIC "-//W3C//DTD SVG 20010904//EN"
 "http://www.w3.org/TR/2001/REC-SVG-20010904/DTD/svg10.dtd">
<svg version="1.0" xmlns="http://www.w3.org/2000/svg"
 width="363.000000pt" height="363.000000pt" viewBox="0 0 363.000000 363.000000"
 preserveAspectRatio="xMidYMid meet">
<metadata>
Created by potrace 1.14, written by Peter Selinger 2001-2017
</metadata>
<g transform="translate(0.000000,363.000000) scale(0.100000,-0.100000)"
fill="#000000" stroke="none">
<path d="M1732 2702 c-15 -15 -48 -36 -73 -45 -162 -61 -295 -225 -334 -412
-8 -38 -19 -71 -25 -73 -5 -2 -10 -26 -10 -53 0 -36 -4 -49 -14 -49 -22 0 -58
52 -53 76 3 17 -7 32 -40 59 -36 30 -42 39 -32 51 10 12 3 23 -39 63 -29 26
-52 53 -52 60 0 18 27 67 83 150 l50 74 -55 -6 c-70 -7 -142 -43 -194 -99 -23
-23 -103 -120 -178 -215 -137 -172 -204 -237 -277 -270 -21 -9 -39 -20 -39
-24 0 -4 19 -35 41 -68 42 -63 111 -122 186 -160 46 -23 152 -51 194 -51 25 0
26 2 21 49 -6 64 18 142 68 219 l40 63 52 -42 c32 -25 52 -48 50 -58 -15 -71
-13 -84 19 -149 24 -48 57 -91 123 -157 l91 -90 -37 -36 c-32 -31 -38 -44 -38
-80 l-1 -44 -79 -44 c-126 -69 -217 -172 -236 -267 -4 -24 0 -37 21 -62 25
-29 133 -102 151 -102 5 0 19 33 31 74 26 84 86 180 144 230 31 26 121 81 171
104 3 2 17 -21 31 -51 34 -74 88 -131 155 -164 75 -37 191 -39 264 -6 69 31
131 94 162 162 39 87 39 87 135 33 46 -26 101 -63 123 -82 56 -47 115 -141
141 -227 12 -40 27 -73 33 -73 19 0 130 76 153 106 18 22 21 36 16 64 -16 87
-108 190 -231 259 -44 24 -88 50 -100 57 -11 6 -26 30 -32 52 -7 23 -27 53
-48 71 l-36 32 29 21 c15 12 57 51 93 87 79 81 130 171 131 232 0 42 3 46 70
96 l69 53 41 -62 c49 -77 73 -155 67 -219 -5 -47 -4 -49 21 -49 42 0 148 28
194 51 75 38 144 97 186 160 22 33 41 65 41 69 0 4 -12 12 -27 18 -70 25 -148
101 -307 297 -88 110 -170 208 -181 218 -40 35 -119 69 -173 74 l-55 6 50 -74
c56 -83 83 -132 83 -150 0 -7 -23 -34 -52 -60 -43 -41 -49 -51 -39 -63 11 -13
8 -20 -19 -43 -18 -16 -39 -31 -46 -35 -6 -5 -10 -17 -7 -28 6 -21 -21 -70
-37 -70 -13 0 -13 227 0 235 6 4 10 56 10 124 0 110 -1 119 -23 139 -32 30
-87 29 -115 -1 -19 -20 -22 -35 -22 -113 l0 -89 -29 49 c-64 108 -160 191
-268 232 -27 10 -60 31 -75 46 -16 17 -36 28 -53 28 -17 0 -37 -11 -53 -28z
m94 -27 c9 -14 22 -25 28 -25 27 0 155 -71 200 -111 87 -77 153 -202 172 -327
l7 -44 -69 7 c-111 11 -105 3 -78 97 38 129 36 136 -46 210 -79 71 -169 132
-217 150 -24 9 -33 18 -33 35 0 31 -27 30 -42 -2 -7 -15 -27 -29 -56 -39 -145
-50 -267 -188 -317 -361 -26 -90 -27 -91 -32 -78 -8 21 28 137 64 205 63 120
142 191 269 243 30 12 62 32 70 44 21 29 60 27 80 -4z m13 -80 c52 -26 178
-123 224 -172 l27 -29 -19 -75 c-11 -41 -24 -85 -29 -99 l-9 -25 -244 4 c-134
2 -247 5 -250 7 -12 7 -50 154 -47 181 2 19 24 45 79 93 69 59 191 140 212
140 4 0 29 -11 56 -25z m-749 -102 c-64 -99 -64 -123 -6 -183 l44 -45 -113
-163 c-121 -173 -145 -225 -145 -309 0 -60 -4 -62 -89 -42 -100 23 -203 90
-262 172 -37 51 -36 60 4 79 59 28 145 117 296 307 165 207 224 258 298 260
21 1 18 -5 -27 -76z m1250 58 c13 -25 13 -197 0 -222 -8 -14 -21 -19 -51 -19
-34 0 -41 4 -50 26 -13 36 -6 40 15 9 19 -28 47 -32 70 -9 20 19 23 193 4 212
-20 20 -69 15 -75 -8 -3 -11 -10 -20 -15 -20 -5 0 -7 3 -5 8 2 4 7 15 10 25 9
25 83 24 97 -2z m207 8 c63 -23 112 -72 253 -249 156 -195 219 -262 288 -301
23 -13 42 -29 42 -34 0 -28 -75 -113 -139 -157 -51 -36 -162 -77 -206 -78 -29
0 -30 1 -32 51 -4 87 -30 141 -148 311 l-113 163 44 45 c58 61 58 84 -6 183
-53 82 -50 92 17 66z m-223 -25 c3 -9 6 -53 6 -99 0 -60 -4 -86 -15 -95 -19
-16 -52 -4 -59 23 -10 36 -7 147 4 168 13 23 55 25 64 3z m-6 -338 c3 -42 1
-48 -13 -42 -9 3 -23 6 -31 6 -18 0 -20 76 -1 83 31 13 42 2 45 -47z m-1157
-7 c16 -11 29 -28 29 -36 0 -9 11 -36 25 -60 14 -23 22 -43 17 -43 -6 0 -33
-16 -61 -35 l-52 -36 -32 22 c-70 48 -69 46 -40 93 14 22 37 58 50 79 13 20
26 37 29 37 3 0 19 -9 35 -21z m1392 -52 c26 -40 47 -76 47 -80 0 -4 -30 -29
-67 -56 l-66 -49 -31 32 c-17 18 -40 37 -50 43 -19 11 -19 12 7 46 14 19 29
47 33 63 7 28 49 73 69 74 6 0 31 -33 58 -73z m-343 6 l115 -18 3 -32 c4 -37
0 -39 -57 -18 -176 62 -642 73 -888 21 l-63 -13 0 33 c0 32 1 33 53 38 28 3
66 8 82 10 17 2 167 3 335 1 230 -3 333 -8 420 -22z m-140 -54 c158 -18 297
-67 348 -122 29 -31 41 -73 32 -113 -10 -43 -69 -129 -129 -189 l-51 -49 0 33
c0 18 7 58 16 88 21 71 15 145 -15 176 -11 13 -21 27 -21 31 0 15 69 -2 99
-23 38 -27 46 -62 25 -104 -16 -30 -16 -31 0 -18 27 23 47 69 40 95 -14 57
-95 103 -234 133 -72 15 -133 18 -395 18 -331 0 -416 -9 -528 -57 -93 -40
-124 -117 -71 -175 20 -22 23 -23 15 -6 -26 53 -6 100 56 132 24 12 63 15 63
4 0 -4 -9 -17 -21 -29 -27 -29 -34 -88 -19 -155 20 -88 27 -139 19 -139 -14 0
-120 123 -149 173 -58 100 -32 170 83 227 152 75 523 105 837 69z m-274 -110
c5 1 10 -19 12 -44 3 -42 2 -45 -22 -45 -21 0 -26 5 -26 24 0 52 -29 36 -66
-34 -15 -30 -19 -32 -22 -15 -2 11 -9 23 -16 27 -13 9 -94 0 -116 -13 -10 -6
-6 -7 12 -3 21 4 27 1 33 -15 11 -35 52 -25 46 12 0 4 6 7 14 7 8 0 15 -8 15
-17 0 -21 -56 -94 -95 -125 -23 -18 -29 -19 -57 -7 -36 15 -67 75 -68 129 0
52 18 107 38 116 9 4 77 9 150 10 74 1 136 5 140 8 3 4 9 1 12 -5 4 -6 11 -10
16 -10z m302 -8 c14 -8 23 -25 28 -57 14 -96 -13 -168 -71 -187 -28 -10 -33
-7 -86 53 -53 58 -66 89 -42 97 6 2 13 -5 16 -17 7 -26 37 -26 44 1 5 16 11
19 32 15 18 -4 21 -3 11 3 -23 13 -89 23 -111 16 -14 -5 -19 -13 -16 -25 3
-13 0 -17 -9 -13 -17 6 -18 45 -2 61 19 19 94 14 178 -13 23 -7 24 -7 10 10
-33 40 -118 57 -176 35 -19 -8 -30 -7 -41 2 -13 10 -12 14 4 26 21 17 197 11
231 -7z m-673 -36 c-26 -73 -14 -168 27 -212 22 -24 22 -25 2 -15 -48 25 -71
163 -39 239 20 48 28 38 10 -12z m-42 -57 c-4 -83 -2 -98 19 -138 18 -35 32
-48 63 -59 39 -13 44 -13 121 22 158 71 242 73 388 5 82 -38 91 -40 127 -29
23 7 47 24 61 44 20 28 23 45 24 137 2 106 12 132 35 88 16 -30 17 -163 0
-210 -7 -20 -28 -51 -47 -68 -48 -42 -100 -41 -194 5 -145 69 -245 69 -386 1
-122 -60 -193 -45 -235 48 -33 72 -23 246 14 246 11 0 13 -18 10 -92z m785 -2
c4 -77 -8 -136 -33 -156 -10 -9 -8 3 6 36 17 38 20 60 16 113 -2 36 -8 75 -12
86 -7 17 -6 18 6 7 8 -8 15 -41 17 -86z m-358 -23 c0 -16 3 -38 6 -50 5 -20 2
-23 -20 -23 -16 0 -25 4 -21 10 7 11 -25 70 -37 70 -4 0 -40 -30 -80 -67 -69
-64 -70 -59 -3 16 32 36 96 70 133 71 17 0 22 -6 22 -27z m86 -25 c25 -23 54
-56 65 -72 11 -17 -3 -5 -33 26 -29 31 -66 64 -83 72 -20 11 -24 16 -12 16 9
0 38 -19 63 -42z m-136 -167 c0 -35 12 -51 39 -51 14 0 44 -5 66 -11 35 -10
41 -9 56 10 23 28 29 27 71 -16 66 -70 97 -162 82 -245 l-8 -43 -7 51 c-18
140 -128 236 -269 237 -144 1 -255 -92 -279 -235 -7 -45 -9 -48 -10 -17 -3 95
68 198 167 242 49 22 59 31 55 47 -3 11 -3 27 1 35 8 22 36 19 36 -4z m-285
-51 c17 0 45 4 64 10 l34 9 -21 -22 c-11 -12 -32 -42 -47 -67 l-26 -45 7 51 6
51 -51 7 c-29 4 -56 4 -61 1 -6 -3 -10 5 -10 19 l0 26 37 -20 c21 -11 51 -20
68 -20z m724 3 c-1 -21 -3 -30 -6 -19 -4 15 -11 17 -41 12 -21 -3 -45 -6 -55
-6 -15 0 -17 -7 -12 -52 l7 -53 -27 45 c-15 25 -36 56 -48 69 -21 23 -21 24
-2 16 46 -18 110 -16 145 3 19 11 36 20 38 21 1 0 1 -16 1 -36z m-745 -42 c8
-12 -5 -136 -15 -153 -7 -10 -11 -10 -21 0 -10 10 -10 15 -1 20 6 4 15 31 19
60 5 43 4 53 -10 58 -9 3 -16 10 -16 15 0 12 37 12 44 0z m418 -7 c59 -20 126
-77 149 -128 22 -49 25 -143 6 -189 -39 -91 -129 -147 -237 -146 -113 0 -192
43 -235 129 -99 195 102 408 317 334z m293 6 c3 -5 -1 -10 -9 -10 -25 0 -23
-115 2 -125 16 -6 16 -7 -1 -17 -10 -5 -20 -8 -23 -6 -7 8 -24 150 -18 159 7
12 41 12 49 -1z m49 -46 c9 -3 13 -10 10 -15 -3 -5 2 -6 10 -3 10 4 22 -6 36
-28 37 -61 17 -105 -26 -57 -10 12 -34 28 -51 36 -24 10 -33 20 -33 37 0 15 7
26 18 29 9 3 18 5 19 6 1 0 8 -2 17 -5z m-804 -33 c0 -22 -6 -30 -24 -35 -14
-3 -38 -18 -55 -32 -32 -26 -52 -25 -50 4 0 13 2 13 6 3 4 -9 10 -3 19 17 12
30 66 72 92 72 7 0 12 -12 12 -29z m-26 -86 c3 -8 12 -15 19 -15 13 0 45 -46
36 -53 -2 -2 -31 -19 -64 -37 -119 -67 -200 -164 -247 -293 l-24 -68 -65 43
c-54 36 -64 48 -67 75 -4 46 40 124 103 181 52 48 193 132 219 132 8 0 28 11
43 25 33 29 39 30 47 10z m848 -10 c24 -20 37 -25 60 -20 22 5 46 -3 115 -42
106 -59 180 -125 217 -192 43 -79 35 -106 -44 -159 l-64 -44 -22 65 c-44 130
-126 226 -258 301 -44 25 -85 47 -90 50 -9 3 38 60 53 65 2 1 17 -10 33 -24z"/>
<path d="M1715 2515 c-5 -2 -23 -6 -38 -10 -24 -5 -27 -8 -17 -20 8 -10 11
-53 9 -138 l-4 -124 42 -1 c40 0 42 1 32 20 -7 13 -10 69 -7 149 1 71 1 129
-2 128 -3 0 -9 -2 -15 -4z"/>
<path d="M1785 2434 c0 -74 2 -81 17 -73 54 29 104 -13 80 -66 -14 -31 -46
-32 -66 -3 -13 18 -18 20 -28 10 -10 -10 -10 -18 2 -40 29 -51 104 -55 136 -7
41 62 9 157 -54 163 -26 3 -32 8 -32 28 0 20 5 24 29 24 19 0 34 -8 44 -22 14
-22 15 -21 18 25 l4 47 -75 -1 -75 -2 0 -83z"/>
<path d="M1051 2505 c-22 -20 -50 -56 -62 -81 -22 -46 -22 -80 -3 -210 l6 -42
-70 -55 c-86 -69 -109 -98 -123 -153 -21 -82 -66 -86 -116 -10 -18 28 -41 58
-51 69 -19 18 -20 18 -65 -15 -25 -18 -46 -39 -46 -46 -1 -7 20 -35 46 -63 49
-53 174 -122 243 -134 l35 -6 1 53 c1 76 34 142 147 297 54 74 101 140 104
147 3 7 -14 31 -37 53 -40 37 -42 43 -37 81 3 24 20 61 42 91 20 28 34 53 32
56 -3 2 -23 -12 -46 -32z"/>
<path d="M2520 2536 c0 -3 18 -31 40 -62 55 -79 55 -114 -4 -168 l-43 -41 103
-140 c126 -171 156 -229 158 -308 l1 -58 35 6 c69 12 194 81 243 134 26 28 47
56 46 63 0 7 -21 28 -46 46 -45 33 -46 33 -65 15 -10 -11 -33 -41 -51 -69 -50
-76 -95 -72 -116 10 -14 55 -37 84 -123 153 l-70 55 6 42 c24 163 18 202 -42
268 -32 36 -72 66 -72 54z"/>
<path d="M1533 1946 c-17 -8 -36 -23 -42 -34 -10 -20 -10 -20 18 -6 39 20 143
29 168 15 17 -8 22 -7 27 5 8 21 9 19 -11 22 -116 11 -130 11 -160 -2z"/>
<path d="M1715 1529 c-101 -38 -160 -142 -135 -241 41 -163 255 -212 367 -85
83 95 59 238 -51 307 -42 26 -135 35 -181 19z m110 -8 c20 -4 26 -9 17 -14 -7
-5 -10 -13 -7 -18 10 -15 33 -10 37 8 2 14 10 11 41 -17 49 -43 74 -89 55
-102 -10 -7 -9 -11 6 -23 19 -14 19 -15 0 -54 -10 -22 -27 -42 -36 -45 -10 -2
-18 -14 -18 -25 0 -14 -6 -21 -20 -21 -11 0 -20 -4 -20 -9 0 -13 -58 -31 -101
-31 -32 0 -39 3 -39 20 0 21 -26 28 -32 8 -7 -19 -65 22 -96 66 -19 27 -23 41
-14 43 14 5 16 33 2 33 -5 0 -10 11 -10 25 0 14 5 25 10 25 6 0 10 11 10 25 0
20 5 25 25 25 20 0 24 5 22 23 -1 17 2 21 19 19 14 -2 23 4 27 17 7 26 59 36
122 22z"/>
<path d="M1750 1495 c0 -8 7 -15 15 -15 8 0 15 7 15 15 0 8 -7 15 -15 15 -8 0
-15 -7 -15 -15z"/>
<path d="M1712 1454 c4 -21 22 -23 26 -1 2 10 -3 17 -13 17 -10 0 -15 -6 -13
-16z"/>
<path d="M1797 1464 c-13 -13 -7 -24 14 -24 11 0 19 5 17 12 -5 14 -22 21 -31
12z"/>
<path d="M1882 1454 c4 -21 22 -23 26 -1 2 10 -3 17 -13 17 -10 0 -15 -6 -13
-16z"/>
<path d="M1670 1410 c0 -13 5 -20 13 -17 6 2 12 10 12 17 0 7 -6 15 -12 18 -8
2 -13 -5 -13 -18z"/>
<path d="M1755 1420 c-7 -12 2 -30 16 -30 5 0 9 9 9 20 0 21 -15 27 -25 10z"/>
<path d="M1840 1410 c0 -13 5 -20 13 -17 6 2 12 10 12 17 0 7 -6 15 -12 18 -8
2 -13 -5 -13 -18z"/>
<path d="M1925 1420 c-7 -12 2 -30 16 -30 5 0 9 9 9 20 0 21 -15 27 -25 10z"/>
<path d="M1623 1368 c2 -7 10 -13 17 -13 7 0 15 6 18 13 2 7 -5 12 -18 12 -13
0 -20 -5 -17 -12z"/>
<path d="M1710 1365 c0 -8 7 -15 15 -15 8 0 15 7 15 15 0 8 -7 15 -15 15 -8 0
-15 -7 -15 -15z"/>
<path d="M1793 1368 c2 -7 10 -13 17 -13 7 0 15 6 18 13 2 7 -5 12 -18 12 -13
0 -20 -5 -17 -12z"/>
<path d="M1880 1365 c0 -8 7 -15 15 -15 8 0 15 7 15 15 0 8 -7 15 -15 15 -8 0
-15 -7 -15 -15z"/>
<path d="M1667 1334 c-9 -10 2 -24 19 -24 8 0 14 7 14 15 0 15 -21 21 -33 9z"/>
<path d="M1750 1325 c0 -8 7 -15 15 -15 8 0 15 7 15 15 0 8 -7 15 -15 15 -8 0
-15 -7 -15 -15z"/>
<path d="M1837 1334 c-9 -10 2 -24 19 -24 8 0 14 7 14 15 0 15 -21 21 -33 9z"/>
<path d="M1920 1325 c0 -8 7 -15 15 -15 8 0 15 7 15 15 0 8 -7 15 -15 15 -8 0
-15 -7 -15 -15z"/>
<path d="M1627 1294 c-13 -13 -7 -24 14 -24 11 0 19 5 17 12 -5 14 -22 21 -31
12z"/>
<path d="M1712 1284 c4 -21 22 -23 26 -1 2 10 -3 17 -13 17 -10 0 -15 -6 -13
-16z"/>
<path d="M1797 1294 c-13 -13 -7 -24 14 -24 11 0 19 5 17 12 -5 14 -22 21 -31
12z"/>
<path d="M1882 1284 c4 -21 22 -23 26 -1 2 10 -3 17 -13 17 -10 0 -15 -6 -13
-16z"/>
<path d="M1670 1240 c0 -13 5 -20 13 -17 6 2 12 10 12 17 0 7 -6 15 -12 18 -8
2 -13 -5 -13 -18z"/>
<path d="M1755 1250 c-7 -12 2 -30 16 -30 5 0 9 9 9 20 0 21 -15 27 -25 10z"/>
<path d="M1840 1240 c0 -13 5 -20 13 -17 6 2 12 10 12 17 0 7 -6 15 -12 18 -8
2 -13 -5 -13 -18z"/>
<path d="M1793 1198 c2 -7 10 -13 17 -13 7 0 15 6 18 13 2 7 -5 12 -18 12 -13
0 -20 -5 -17 -12z"/>
<path d="M1159 1163 c-22 -20 -49 -54 -60 -75 -28 -54 -47 -59 -80 -19 -26 32
-27 32 -34 11 -9 -29 19 -68 73 -98 l41 -23 14 49 c16 54 49 122 79 165 26 37
16 34 -33 -10z"/>
<path d="M2427 1174 c31 -44 70 -125 82 -172 l12 -43 48 27 c51 27 76 63 66
95 -6 17 -9 16 -32 -11 -32 -38 -50 -38 -71 2 -22 40 -79 106 -105 120 -20 10
-20 10 0 -18z"/>
</g>
</svg>
